
<svg class="ProfileItem_icon__3Gmbu" width="24" height="24" viewBox="0 0 24 24" fill="none" xmlns="http://www.w3.org/2000/svg"><path fill="currentColor" d="M14.4943 12.9343L13.2857 14.1429L15.4714 16.2429L14.2996 17.4147C14.0836 17.6307 14.2366 18 14.542 18H18.0857C18.2751 18 18.4286 17.8465 18.4286 17.6571V14.1134C18.4286 13.808 18.0593 13.655 17.8433 13.871L16.68 15.0343L14.4943 12.9343ZM14.542 6C14.2366 6 14.0836 6.36931 14.2996 6.58529L15.4629 7.74857L7.04302 16.0326C6.70449 16.3657 6.70227 16.9108 7.03808 17.2466C7.36982 17.5784 7.90693 17.5808 8.24167 17.2521L16.68 8.96571L17.8433 10.129C18.0593 10.345 18.4286 10.192 18.4286 9.88656V6.34286C18.4286 6.1535 18.2751 6 18.0857 6H14.542ZM11.5029 9.93429L7.81062 6.61791C7.47303 6.31468 6.95722 6.3285 6.63635 6.64937C6.29045 6.99527 6.30531 7.5605 6.66892 7.88774L10.2857 11.1429L11.5029 9.93429Z"></path></svg>
